<svg xmlns="http://www.w3.org/2000/svg" viewBox="0 0 64 64" width="64" height="64" role="img" aria-label="ICOE">
  <rect width="64" height="64" rx="14" fill="rgb(11,79,122)"/>
  <g clip-path="url(#roundClip)">
    <circle cx="32.00" cy="20.48" r="9.60" fill="#ffffff"/>
    <path d="M0.00,33.92 L1.33,34.33 L2.67,34.72 L4.00,35.09 L5.33,35.42 L6.67,35.70 L8.00,35.92 L9.33,36.07 L10.67,36.15 L12.00,36.15 L13.33,36.08 L14.67,35.94 L16.00,35.73 L17.33,35.46 L18.67,35.14 L20.00,34.78 L21.33,34.39 L22.67,33.98 L24.00,33.57 L25.33,33.17 L26.67,32.80 L28.00,32.47 L29.33,32.18 L30.67,31.95 L32.00,31.79 L33.33,31.70 L34.67,31.68 L36.00,31.74 L37.33,31.87 L38.67,32.07 L40.00,32.34 L41.33,32.65 L42.67,33.01 L44.00,33.40 L45.33,33.80 L46.67,34.21 L48.00,34.61 L49.33,34.99 L50.67,35.33 L52.00,35.62 L53.33,35.86 L54.67,36.03 L56.00,36.13 L57.33,36.16 L58.67,36.11 L60.00,35.99 L61.33,35.80 L62.67,35.54 L64.00,35.24 L64.00,39.08 L62.67,39.38 L61.33,39.64 L60.00,39.83 L58.67,39.95 L57.33,40.00 L56.00,39.97 L54.67,39.87 L53.33,39.70 L52.00,39.46 L50.67,39.17 L49.33,38.83 L48.00,38.45 L46.67,38.05 L45.33,37.64 L44.00,37.24 L42.67,36.85 L41.33,36.49 L40.00,36.18 L38.67,35.91 L37.33,35.71 L36.00,35.58 L34.67,35.52 L33.33,35.54 L32.00,35.63 L30.67,35.79 L29.33,36.02 L28.00,36.31 L26.67,36.64 L25.33,37.01 L24.00,37.41 L22.67,37.82 L21.33,38.23 L20.00,38.62 L18.67,38.98 L17.33,39.30 L16.00,39.57 L14.67,39.78 L13.33,39.92 L12.00,39.99 L10.67,39.99 L9.33,39.91 L8.00,39.76 L6.67,39.54 L5.33,39.26 L4.00,38.93 L2.67,38.56 L1.33,38.17 L0.00,37.76 Z" fill="#ffffff" fill-opacity="1"/>
    <path d="M0.00,45.68 L1.33,45.75 L2.67,45.75 L4.00,45.67 L5.33,45.52 L6.67,45.31 L8.00,45.03 L9.33,44.71 L10.67,44.34 L12.00,43.95 L13.33,43.54 L14.67,43.13 L16.00,42.74 L17.33,42.37 L18.67,42.04 L20.00,41.76 L21.33,41.53 L22.67,41.38 L24.00,41.29 L25.33,41.29 L26.67,41.35 L28.00,41.49 L29.33,41.70 L30.67,41.96 L32.00,42.28 L33.33,42.64 L34.67,43.03 L36.00,43.44 L37.33,43.85 L38.67,44.25 L40.00,44.62 L41.33,44.96 L42.67,45.25 L44.00,45.48 L45.33,45.64 L46.67,45.74 L48.00,45.76 L49.33,45.70 L50.67,45.57 L52.00,45.38 L53.33,45.12 L54.67,44.81 L56.00,44.45 L57.33,44.06 L58.67,43.66 L60.00,43.25 L61.33,42.85 L62.67,42.47 L64.00,42.13 L64.00,45.97 L62.67,46.31 L61.33,46.69 L60.00,47.09 L58.67,47.50 L57.33,47.90 L56.00,48.29 L54.67,48.65 L53.33,48.96 L52.00,49.22 L50.67,49.41 L49.33,49.54 L48.00,49.60 L46.67,49.58 L45.33,49.48 L44.00,49.32 L42.67,49.09 L41.33,48.80 L40.00,48.46 L38.67,48.09 L37.33,47.69 L36.00,47.28 L34.67,46.87 L33.33,46.48 L32.00,46.12 L30.67,45.80 L29.33,45.54 L28.00,45.33 L26.67,45.19 L25.33,45.13 L24.00,45.13 L22.67,45.22 L21.33,45.37 L20.00,45.60 L18.67,45.88 L17.33,46.21 L16.00,46.58 L14.67,46.97 L13.33,47.38 L12.00,47.79 L10.67,48.18 L9.33,48.55 L8.00,48.87 L6.67,49.15 L5.33,49.36 L4.00,49.51 L2.67,49.59 L1.33,49.59 L0.00,49.52 Z" fill="#ffffff" fill-opacity="0.75"/>
    <path d="M0.00,54.27 L1.33,53.91 L2.67,53.51 L4.00,53.10 L5.33,52.69 L6.67,52.30 L8.00,51.93 L9.33,51.61 L10.67,51.33 L12.00,51.12 L13.33,50.97 L14.67,50.89 L16.00,50.89 L17.33,50.96 L18.67,51.11 L20.00,51.32 L21.33,51.59 L22.67,51.92 L24.00,52.28 L25.33,52.67 L26.67,53.08 L28.00,53.49 L29.33,53.88 L30.67,54.26 L32.00,54.59 L33.33,54.87 L34.67,55.10 L36.00,55.26 L37.33,55.34 L38.67,55.36 L40.00,55.29 L41.33,55.16 L42.67,54.96 L44.00,54.69 L45.33,54.37 L46.67,54.01 L48.00,53.63 L49.33,53.22 L50.67,52.81 L52.00,52.41 L53.33,52.04 L54.67,51.70 L56.00,51.40 L57.33,51.17 L58.67,51.00 L60.00,50.90 L61.33,50.88 L62.67,50.93 L64.00,51.06 L64.00,54.90 L62.67,54.77 L61.33,54.72 L60.00,54.74 L58.67,54.84 L57.33,55.01 L56.00,55.24 L54.67,55.54 L53.33,55.88 L52.00,56.25 L50.67,56.65 L49.33,57.06 L48.00,57.47 L46.67,57.85 L45.33,58.21 L44.00,58.53 L42.67,58.80 L41.33,59.00 L40.00,59.13 L38.67,59.20 L37.33,59.18 L36.00,59.10 L34.67,58.94 L33.33,58.71 L32.00,58.43 L30.67,58.10 L29.33,57.72 L28.00,57.33 L26.67,56.92 L25.33,56.51 L24.00,56.12 L22.67,55.76 L21.33,55.43 L20.00,55.16 L18.67,54.95 L17.33,54.80 L16.00,54.73 L14.67,54.73 L13.33,54.81 L12.00,54.96 L10.67,55.17 L9.33,55.45 L8.00,55.77 L6.67,56.14 L5.33,56.53 L4.00,56.94 L2.67,57.35 L1.33,57.75 L0.00,58.11 Z" fill="#ffffff" fill-opacity="0.55"/>
  </g>
  <defs>
    <clipPath id="roundClip">
      <rect width="64" height="64" rx="14"/>
    </clipPath>
  </defs>
</svg>
